<?xml version="1.0" standalone="no"?>
<!DOCTYPE svg PUBLIC "-//W3C//DTD SVG 20010904//EN"
 "http://www.w3.org/TR/2001/REC-SVG-20010904/DTD/svg10.dtd">
<svg version="1.0" xmlns="http://www.w3.org/2000/svg"
 width="840.000000pt" height="840.000000pt" viewBox="0 0 840.000000 840.000000"
 preserveAspectRatio="xMidYMid meet">
<metadata>
Created by potrace 1.11, written by Peter Selinger 2001-2013
</metadata>
<g transform="translate(0.000000,840.000000) scale(0.100000,-0.100000)"
fill="#000000" stroke="none">
<path d="M4581 8384 c0 -11 3 -14 6 -6 3 7 2 16 -1 19 -3 4 -6 -2 -5 -13z"/>
<path d="M6151 8387 c-8 -10 -7 -14 2 -14 8 0 14 6 14 14 0 7 -1 13 -2 13 -2
0 -8 -6 -14 -13z"/>
<path d="M6709 8383 c-13 -16 -12 -17 4 -4 9 7 17 15 17 17 0 8 -8 3 -21 -13z"/>
<path d="M2982 8355 c0 -16 2 -22 5 -12 2 9 2 23 0 30 -3 6 -5 -1 -5 -18z"/>
<path d="M2451 8354 c0 -11 3 -14 6 -6 3 7 2 16 -1 19 -3 4 -6 -2 -5 -13z"/>
<path d="M4971 8354 c0 -11 3 -14 6 -6 3 7 2 16 -1 19 -3 4 -6 -2 -5 -13z"/>
<path d="M2101 8344 c0 -11 3 -14 6 -6 3 7 2 16 -1 19 -3 4 -6 -2 -5 -13z"/>
<path d="M2895 8340 c-3 -6 1 -7 9 -4 18 7 21 14 7 14 -6 0 -13 -4 -16 -10z"/>
<path d="M6095 8331 c-3 -5 -2 -12 3 -15 5 -3 9 1 9 9 0 17 -3 19 -12 6z"/>
<path d="M2462 8290 c0 -14 2 -19 5 -12 2 6 2 18 0 25 -3 6 -5 1 -5 -13z"/>
<path d="M2819 8283 l-24 -28 28 24 c25 23 32 31 24 31 -2 0 -14 -12 -28 -27z"/>
<path d="M4593 8260 c0 -30 2 -43 4 -27 2 15 2 39 0 55 -2 15 -4 2 -4 -28z"/>
<path d="M4981 8294 c0 -11 3 -14 6 -6 3 7 2 16 -1 19 -3 4 -6 -2 -5 -13z"/>
<path d="M5651 8264 c0 -11 3 -14 6 -6 3 7 2 16 -1 19 -3 4 -6 -2 -5 -13z"/>
<path d="M5192 8240 c0 -14 2 -19 5 -12 2 6 2 18 0 25 -3 6 -5 1 -5 -13z"/>
<path d="M2121 8224 c0 -11 3 -14 6 -6 3 7 2 16 -1 19 -3 4 -6 -2 -5 -13z"/>
<path d="M2749 8208 c-16 -24 -17 -28 -3 -13 10 11 25 26 33 33 9 7 10 12 4
12 -7 0 -22 -15 -34 -32z"/>
<path d="M3981 8224 c0 -11 3 -14 6 -6 3 7 2 16 -1 19 -3 4 -6 -2 -5 -13z"/>
<path d="M2482 8170 c0 -14 2 -19 5 -12 2 6 2 18 0 25 -3 6 -5 1 -5 -13z"/>
<path d="M2131 8164 c0 -11 3 -14 6 -6 3 7 2 16 -1 19 -3 4 -6 -2 -5 -13z"/>
<path d="M6576 8163 c-6 -14 -5 -15 5 -6 7 7 10 15 7 18 -3 3 -9 -2 -12 -12z"/>
<path d="M2981 8154 c0 -11 3 -14 6 -6 3 7 2 16 -1 19 -3 4 -6 -2 -5 -13z"/>
<path d="M3996 8157 c3 -10 9 -15 12 -12 3 3 0 11 -7 18 -10 9 -11 8 -5 -6z"/>
<path d="M2696 8125 c-9 -26 -7 -32 5 -12 6 10 9 21 6 23 -2 3 -7 -2 -11 -11z"/>
<path d="M5181 8124 c0 -11 3 -14 6 -6 3 7 2 16 -1 19 -3 4 -6 -2 -5 -13z"/>
<path d="M5642 8120 c0 -14 2 -19 5 -12 2 6 2 18 0 25 -3 6 -5 1 -5 -13z"/>
<path d="M5955 8121 c-3 -5 -2 -12 3 -15 5 -3 9 1 9 9 0 17 -3 19 -12 6z"/>
<path d="M1295 8090 c9 -16 18 -30 21 -30 2 0 -2 14 -11 30 -9 17 -18 30 -21
30 -2 0 2 -13 11 -30z"/>
<path d="M1323 8113 c9 -2 23 -2 30 0 6 3 -1 5 -18 5 -16 0 -22 -2 -12 -5z"/>
<path d="M2141 8104 c0 -11 3 -14 6 -6 3 7 2 16 -1 19 -3 4 -6 -2 -5 -13z"/>
<path d="M1428 8103 c6 -2 18 -2 25 0 6 3 1 5 -13 5 -14 0 -19 -2 -12 -5z"/>
<path d="M1508 8093 c7 -3 16 -2 19 1 4 3 -2 6 -13 5 -11 0 -14 -3 -6 -6z"/>
<path d="M3901 8084 c0 -11 3 -14 6 -6 3 7 2 16 -1 19 -3 4 -6 -2 -5 -13z"/>
<path d="M1568 8083 c7 -3 16 -2 19 1 4 3 -2 6 -13 5 -11 0 -14 -3 -6 -6z"/>
<path d="M3471 8064 c0 -11 3 -14 6 -6 3 7 2 16 -1 19 -3 4 -6 -2 -5 -13z"/>
<path d="M1668 8063 c7 -3 16 -2 19 1 4 3 -2 6 -13 5 -11 0 -14 -3 -6 -6z"/>
<path d="M2501 8054 c0 -11 3 -14 6 -6 3 7 2 16 -1 19 -3 4 -6 -2 -5 -13z"/>
<path d="M2151 8044 c0 -11 3 -14 6 -6 3 7 2 16 -1 19 -3 4 -6 -2 -5 -13z"/>
<path d="M3001 8044 c0 -11 3 -14 6 -6 3 7 2 16 -1 19 -3 4 -6 -2 -5 -13z"/>
<path d="M4527 8040 c-19 -22 -22 -35 -7 -25 10 6 34 45 28 45 -2 0 -11 -9
-21 -20z"/>
<path d="M5172 8035 c0 -16 2 -22 5 -12 2 9 2 23 0 30 -3 6 -5 -1 -5 -18z"/>
<path d="M6506 8023 c-6 -14 -5 -15 5 -6 7 7 10 15 7 18 -3 3 -9 -2 -12 -12z"/>
<path d="M1850 8006 c0 -2 7 -7 16 -10 8 -3 12 -2 9 4 -6 10 -25 14 -25 6z"/>
<path d="M2161 7994 c0 -11 3 -14 6 -6 3 7 2 16 -1 19 -3 4 -6 -2 -5 -13z"/>
<path d="M5631 7994 c0 -11 3 -14 6 -6 3 7 2 16 -1 19 -3 4 -6 -2 -5 -13z"/>
<path d="M1900 7980 c35 -24 54 -31 30 -11 -14 11 -29 21 -35 21 -5 0 -3 -5 5
-10z"/>
<path d="M5860 7970 c-6 -11 -8 -20 -6 -20 3 0 10 9 16 20 6 11 8 20 6 20 -3
0 -10 -9 -16 -20z"/>
<path d="M4926 7963 c-6 -14 -5 -15 5 -6 7 7 10 15 7 18 -3 3 -9 -2 -12 -12z"/>
<path d="M2521 7954 c0 -11 3 -14 6 -6 3 7 2 16 -1 19 -3 4 -6 -2 -5 -13z"/>
<path d="M2172 7930 c0 -14 2 -19 5 -12 2 6 2 18 0 25 -3 6 -5 1 -5 -13z"/>
<path d="M2651 7924 c0 -11 3 -14 6 -6 3 7 2 16 -1 19 -3 4 -6 -2 -5 -13z"/>
<path d="M2000 7900 c11 -16 26 -33 32 -36 7 -4 -1 9 -16 29 -34 44 -46 50
-16 7z"/>
<path d="M4905 7919 c-4 -6 -5 -12 -2 -15 2 -3 7 2 10 11 7 17 1 20 -8 4z"/>
<path d="M5621 7884 c0 -11 3 -14 6 -6 3 7 2 16 -1 19 -3 4 -6 -2 -5 -13z"/>
<path d="M3033 7835 c0 -27 2 -38 4 -22 2 15 2 37 0 50 -2 12 -4 0 -4 -28z"/>
<path d="M4876 7863 c-6 -14 -5 -15 5 -6 7 7 10 15 7 18 -3 3 -9 -2 -12 -12z"/>
<path d="M2541 7854 c0 -11 3 -14 6 -6 3 7 2 16 -1 19 -3 4 -6 -2 -5 -13z"/>
<path d="M5151 7854 c0 -11 3 -14 6 -6 3 7 2 16 -1 19 -3 4 -6 -2 -5 -13z"/>
<path d="M5779 7853 c-13 -16 -12 -17 4 -4 9 7 17 15 17 17 0 8 -8 3 -21 -13z"/>
<path d="M2661 7834 c0 -11 3 -14 6 -6 3 7 2 16 -1 19 -3 4 -6 -2 -5 -13z"/>
<path d="M4091 7824 c0 -11 3 -14 6 -6 3 7 2 16 -1 19 -3 4 -6 -2 -5 -13z"/>
<path d="M2060 7811 c0 -6 4 -13 10 -16 6 -3 7 1 4 9 -7 18 -14 21 -14 7z"/>
<path d="M3961 7804 c0 -11 3 -14 6 -6 3 7 2 16 -1 19 -3 4 -6 -2 -5 -13z"/>
<path d="M3415 7799 c-4 -6 -5 -12 -2 -15 2 -3 7 2 10 11 7 17 1 20 -8 4z"/>
<path d="M2671 7784 c0 -11 3 -14 6 -6 3 7 2 16 -1 19 -3 4 -6 -2 -5 -13z"/>
<path d="M3318 7793 c7 -3 16 -2 19 1 4 3 -2 6 -13 5 -11 0 -14 -3 -6 -6z"/>
<path d="M5612 7770 c0 -14 2 -19 5 -12 2 6 2 18 0 25 -3 6 -5 1 -5 -13z"/>
<path d="M6393 7773 c-3 -10 -8 -22 -11 -27 -3 -5 0 -6 5 -3 11 7 25 47 17 47
-3 0 -7 -8 -11 -17z"/>
<path d="M2561 7764 c0 -11 3 -14 6 -6 3 7 2 16 -1 19 -3 4 -6 -2 -5 -13z"/>
<path d="M5694 7748 l-19 -23 23 19 c21 18 27 26 19 26 -2 0 -12 -10 -23 -22z"/>
<path d="M4799 7743 c-13 -16 -12 -17 4 -4 9 7 17 15 17 17 0 8 -8 3 -21 -13z"/>
<path d="M3150 7740 c-8 -5 -10 -10 -5 -10 6 0 17 5 25 10 8 5 11 10 5 10 -5
0 -17 -5 -25 -10z"/>
<path d="M1421 7714 c0 -11 3 -14 6 -6 3 7 2 16 -1 19 -3 4 -6 -2 -5 -13z"/>
<path d="M2211 7714 c0 -11 3 -14 6 -6 3 7 2 16 -1 19 -3 4 -6 -2 -5 -13z"/>
<path d="M2681 7714 c0 -11 3 -14 6 -6 3 7 2 16 -1 19 -3 4 -6 -2 -5 -13z"/>
<path d="M4764 7698 l-19 -23 23 19 c21 18 27 26 19 26 -2 0 -12 -10 -23 -22z"/>
<path d="M5131 7704 c0 -11 3 -14 6 -6 3 7 2 16 -1 19 -3 4 -6 -2 -5 -13z"/>
<path d="M6356 7693 c-6 -14 -5 -15 5 -6 7 7 10 15 7 18 -3 3 -9 -2 -12 -12z"/>
<path d="M3561 7684 c0 -11 3 -14 6 -6 3 7 2 16 -1 19 -3 4 -6 -2 -5 -13z"/>
<path d="M2581 7674 c0 -11 3 -14 6 -6 3 7 2 16 -1 19 -3 4 -6 -2 -5 -13z"/>
<path d="M3020 7665 c-19 -14 -30 -25 -24 -25 10 1 73 50 63 50 -3 0 -20 -11
-39 -25z"/>
<path d="M5616 7675 c-11 -8 -15 -15 -9 -15 6 0 16 7 23 15 16 19 11 19 -14 0z"/>
<path d="M2221 7664 c0 -11 3 -14 6 -6 3 7 2 16 -1 19 -3 4 -6 -2 -5 -13z"/>
<path d="M4730 7657 c-8 -7 -22 -21 -30 -32 -8 -11 0 -7 18 9 29 27 37 37 30
36 -2 0 -10 -6 -18 -13z"/>
<path d="M6336 7653 c-6 -14 -5 -15 5 -6 7 7 10 15 7 18 -3 3 -9 -2 -12 -12z"/>
<path d="M3581 7594 c0 -11 3 -14 6 -6 3 7 2 16 -1 19 -3 4 -6 -2 -5 -13z"/>
<path d="M4641 7564 c0 -11 3 -14 6 -6 3 7 2 16 -1 19 -3 4 -6 -2 -5 -13z"/>
<path d="M6255 7518 c-16 -24 -22 -38 -14 -31 15 12 53 73 46 73 -2 0 -17 -19
-32 -42z"/>
<path d="M2610 7541 c0 -6 4 -13 10 -16 6 -3 7 1 4 9 -7 18 -14 21 -14 7z"/>
<path d="M2681 7534 c0 -11 3 -14 6 -6 3 7 2 16 -1 19 -3 4 -6 -2 -5 -13z"/>
<path d="M5101 7524 c0 -11 3 -14 6 -6 3 7 2 16 -1 19 -3 4 -6 -2 -5 -13z"/>
<path d="M3611 7474 c0 -11 3 -14 6 -6 3 7 2 16 -1 19 -3 4 -6 -2 -5 -13z"/>
<path d="M3323 7440 c0 -25 2 -35 4 -22 2 12 2 32 0 45 -2 12 -4 2 -4 -23z"/>
<path d="M5091 7464 c0 -11 3 -14 6 -6 3 7 2 16 -1 19 -3 4 -6 -2 -5 -13z"/>
<path d="M2261 7454 c0 -11 3 -14 6 -6 3 7 2 16 -1 19 -3 4 -6 -2 -5 -13z"/>
<path d="M4070 7450 c6 -11 13 -20 16 -20 2 0 0 9 -6 20 -6 11 -13 20 -16 20
-2 0 0 -9 6 -20z"/>
<path d="M6180 7425 c-24 -25 -42 -45 -39 -45 3 0 25 20 49 45 24 25 42 45 39
45 -3 0 -25 -20 -49 -45z"/>
<path d="M4211 7424 c0 -11 3 -14 6 -6 3 7 2 16 -1 19 -3 4 -6 -2 -5 -13z"/>
<path d="M2640 7421 c0 -6 4 -13 10 -16 6 -3 7 1 4 9 -7 18 -14 21 -14 7z"/>
<path d="M5082 7410 c0 -14 2 -19 5 -12 2 6 2 18 0 25 -3 6 -5 1 -5 -13z"/>
<path d="M2271 7404 c0 -11 3 -14 6 -6 3 7 2 16 -1 19 -3 4 -6 -2 -5 -13z"/>
<path d="M4122 7370 c7 -11 19 -22 28 -25 8 -4 4 5 -9 19 -29 31 -36 33 -19 6z"/>
<path d="M2281 7354 c0 -11 3 -14 6 -6 3 7 2 16 -1 19 -3 4 -6 -2 -5 -13z"/>
<path d="M2205 7330 c3 -5 8 -10 11 -10 2 0 4 5 4 10 0 6 -5 10 -11 10 -5 0
-7 -4 -4 -10z"/>
<path d="M4170 7330 c0 -5 5 -10 11 -10 5 0 7 5 4 10 -3 6 -8 10 -11 10 -2 0
-4 -4 -4 -10z"/>
<path d="M6040 7325 c-14 -8 -20 -14 -14 -15 5 0 19 7 30 15 24 18 16 19 -16
0z"/>
<path d="M5061 7314 c0 -11 3 -14 6 -6 3 7 2 16 -1 19 -3 4 -6 -2 -5 -13z"/>
<path d="M4238 7303 c7 -3 16 -2 19 1 4 3 -2 6 -13 5 -11 0 -14 -3 -6 -6z"/>
<path d="M5551 7264 c0 -11 3 -14 6 -6 3 7 2 16 -1 19 -3 4 -6 -2 -5 -13z"/>
<path d="M5723 7243 c15 -2 37 -2 50 0 12 2 0 4 -28 4 -27 0 -38 -2 -22 -4z"/>
<path d="M3311 7214 c0 -11 3 -14 6 -6 3 7 2 16 -1 19 -3 4 -6 -2 -5 -13z"/>
<path d="M2311 7204 c0 -11 3 -14 6 -6 3 7 2 16 -1 19 -3 4 -6 -2 -5 -13z"/>
<path d="M3736 7207 c3 -10 9 -15 12 -12 3 3 0 11 -7 18 -10 9 -11 8 -5 -6z"/>
<path d="M4750 7201 c0 -6 4 -13 10 -16 6 -3 7 1 4 9 -7 18 -14 21 -14 7z"/>
<path d="M5541 7194 c0 -11 3 -14 6 -6 3 7 2 16 -1 19 -3 4 -6 -2 -5 -13z"/>
<path d="M3760 7176 c0 -2 8 -10 18 -17 15 -13 16 -12 3 4 -13 16 -21 21 -21
13z"/>
<path d="M1570 7161 c0 -6 4 -13 10 -16 6 -3 7 1 4 9 -7 18 -14 21 -14 7z"/>
<path d="M2285 7140 c9 -16 18 -30 21 -30 2 0 -2 14 -11 30 -9 17 -18 30 -21
30 -2 0 2 -13 11 -30z"/>
<path d="M3270 7100 c-6 -11 -8 -20 -6 -20 3 0 10 9 16 20 6 11 8 20 6 20 -3
0 -10 -9 -16 -20z"/>
<path d="M3850 7085 c13 -14 26 -25 28 -25 3 0 -5 11 -18 25 -13 14 -26 25
-28 25 -3 0 5 -11 18 -25z"/>
<path d="M2320 7083 c13 -28 27 -37 27 -18 0 8 -3 13 -5 10 -3 -3 -11 3 -19
13 -13 15 -13 15 -3 -5z"/>
<path d="M5521 7074 c0 -11 3 -14 6 -6 3 7 2 16 -1 19 -3 4 -6 -2 -5 -13z"/>
<path d="M1640 7036 c0 -2 8 -10 18 -17 15 -13 16 -12 3 4 -13 16 -21 21 -21
13z"/>
<path d="M3209 7013 c-13 -16 -12 -17 4 -4 9 7 17 15 17 17 0 8 -8 3 -21 -13z"/>
<path d="M3930 7026 c0 -3 9 -10 20 -16 11 -6 20 -8 20 -6 0 3 -9 10 -20 16
-11 6 -20 8 -20 6z"/>
<path d="M1670 6996 c0 -2 8 -10 18 -17 15 -13 16 -12 3 4 -13 16 -21 21 -21
13z"/>
<path d="M3994 6986 c11 -9 24 -16 30 -16 12 0 7 5 -24 19 -24 11 -24 11 -6
-3z"/>
<path d="M5501 6954 c0 -11 3 -14 6 -6 3 7 2 16 -1 19 -3 4 -6 -2 -5 -13z"/>
<path d="M1715 6950 c3 -5 8 -10 11 -10 2 0 4 5 4 10 0 6 -5 10 -11 10 -5 0
-7 -4 -4 -10z"/>
<path d="M4971 6934 c0 -11 3 -14 6 -6 3 7 2 16 -1 19 -3 4 -6 -2 -5 -13z"/>
<path d="M3119 6923 c-13 -16 -12 -17 4 -4 9 7 17 15 17 17 0 8 -8 3 -21 -13z"/>
<path d="M3076 6911 c-4 -5 -2 -12 3 -15 5 -4 12 -2 15 3 4 5 2 12 -3 15 -5 4
-12 2 -15 -3z"/>
<path d="M4180 6916 c0 -2 7 -7 16 -10 8 -3 12 -2 9 4 -6 10 -25 14 -25 6z"/>
<path d="M4298 6893 c7 -3 16 -2 19 1 4 3 -2 6 -13 5 -11 0 -14 -3 -6 -6z"/>
<path d="M4338 6893 c6 -2 18 -2 25 0 6 3 1 5 -13 5 -14 0 -19 -2 -12 -5z"/>
<path d="M3044 6874 c-18 -14 -18 -15 4 -4 12 6 22 13 22 15 0 8 -5 6 -26 -11z"/>
<path d="M3685 6850 c10 -11 20 -20 23 -20 3 0 -3 9 -13 20 -10 11 -20 20 -23
20 -3 0 3 -9 13 -20z"/>
<path d="M2990 6845 c-14 -8 -20 -14 -14 -15 5 0 19 7 30 15 24 18 16 19 -16
0z"/>
<path d="M1860 6846 c0 -2 7 -7 16 -10 8 -3 12 -2 9 4 -6 10 -25 14 -25 6z"/>
<path d="M2370 6830 c-8 -5 -10 -10 -5 -10 6 0 17 5 25 10 8 5 11 10 5 10 -5
0 -17 -5 -25 -10z"/>
<path d="M3663 6780 c0 -30 2 -43 4 -27 2 15 2 39 0 55 -2 15 -4 2 -4 -28z"/>
<path d="M2888 6803 c7 -3 16 -2 19 1 4 3 -2 6 -13 5 -11 0 -14 -3 -6 -6z"/>
<path d="M5471 6794 c0 -11 3 -14 6 -6 3 7 2 16 -1 19 -3 4 -6 -2 -5 -13z"/>
<path d="M2018 6783 c7 -3 16 -2 19 1 4 3 -2 6 -13 5 -11 0 -14 -3 -6 -6z"/>
<path d="M2228 6783 c7 -3 16 -2 19 1 4 3 -2 6 -13 5 -11 0 -14 -3 -6 -6z"/>
<path d="M3740 6786 c0 -2 7 -9 15 -16 9 -7 15 -8 15 -2 0 5 -7 12 -15 16 -8
3 -15 4 -15 2z"/>
<path d="M2118 6773 c6 -2 18 -2 25 0 6 3 1 5 -13 5 -14 0 -19 -2 -12 -5z"/>
<path d="M3795 6740 c10 -11 20 -20 23 -20 3 0 -3 9 -13 20 -10 11 -20 20 -23
20 -3 0 3 -9 13 -20z"/>
<path d="M4900 6740 c0 -5 5 -10 11 -10 5 0 7 5 4 10 -3 6 -8 10 -11 10 -2 0
-4 -4 -4 -10z"/>
<path d="M6521 6684 c0 -11 3 -14 6 -6 3 7 2 16 -1 19 -3 4 -6 -2 -5 -13z"/>
<path d="M4470 6685 c0 -5 5 -17 10 -25 5 -8 10 -10 10 -5 0 6 -5 17 -10 25
-5 8 -10 11 -10 5z"/>
<path d="M6375 6638 l-50 -53 53 50 c48 46 57 55 49 55 -1 0 -25 -24 -52 -52z"/>
<path d="M2441 6644 c0 -11 3 -14 6 -6 3 7 2 16 -1 19 -3 4 -6 -2 -5 -13z"/>
<path d="M3671 6644 c0 -11 3 -14 6 -6 3 7 2 16 -1 19 -3 4 -6 -2 -5 -13z"/>
<path d="M4068 6613 c7 -3 16 -2 19 1 4 3 -2 6 -13 5 -11 0 -14 -3 -6 -6z"/>
<path d="M4188 6593 c7 -3 16 -2 19 1 4 3 -2 6 -13 5 -11 0 -14 -3 -6 -6z"/>
<path d="M4248 6583 c7 -3 16 -2 19 1 4 3 -2 6 -13 5 -11 0 -14 -3 -6 -6z"/>
<path d="M4308 6573 c7 -3 16 -2 19 1 4 3 -2 6 -13 5 -11 0 -14 -3 -6 -6z"/>
<path d="M6289 6563 c-13 -16 -12 -17 4 -4 9 7 17 15 17 17 0 8 -8 3 -21 -13z"/>
<path d="M6521 6554 c0 -11 3 -14 6 -6 3 7 2 16 -1 19 -3 4 -6 -2 -5 -13z"/>
<path d="M6224 6524 c-18 -14 -18 -15 4 -4 12 6 22 13 22 15 0 8 -5 6 -26 -11z"/>
<path d="M4437 6519 c7 -7 15 -10 18 -7 3 3 -2 9 -12 12 -14 6 -15 5 -6 -5z"/>
<path d="M4505 6460 c21 -22 41 -40 44 -40 3 0 -13 18 -34 40 -21 22 -41 40
-44 40 -3 0 13 -18 34 -40z"/>
<path d="M6511 6484 c0 -11 3 -14 6 -6 3 7 2 16 -1 19 -3 4 -6 -2 -5 -13z"/>
<path d="M5998 6453 c7 -3 16 -2 19 1 4 3 -2 6 -13 5 -11 0 -14 -3 -6 -6z"/>
<path d="M5903 6443 c9 -2 23 -2 30 0 6 3 -1 5 -18 5 -16 0 -22 -2 -12 -5z"/>
<path d="M5718 6433 c7 -3 16 -2 19 1 4 3 -2 6 -13 5 -11 0 -14 -3 -6 -6z"/>
<path d="M5391 6414 c0 -11 3 -14 6 -6 3 7 2 16 -1 19 -3 4 -6 -2 -5 -13z"/>
<path d="M2921 6394 c0 -11 3 -14 6 -6 3 7 2 16 -1 19 -3 4 -6 -2 -5 -13z"/>
<path d="M3810 6345 c13 -14 26 -25 28 -25 3 0 -5 11 -18 25 -13 14 -26 25
-28 25 -3 0 5 -11 18 -25z"/>
<path d="M5514 6354 c-18 -14 -18 -15 4 -4 12 6 22 13 22 15 0 8 -5 6 -26 -11z"/>
<path d="M4596 6338 c3 -5 10 -6 15 -3 13 9 11 12 -6 12 -8 0 -12 -4 -9 -9z"/>
<path d="M4615 6320 c-3 -5 -1 -10 4 -10 6 0 11 5 11 10 0 6 -2 10 -4 10 -3 0
-8 -4 -11 -10z"/>
<path d="M3850 6316 c0 -2 8 -10 18 -17 15 -13 16 -12 3 4 -13 16 -21 21 -21
13z"/>
<path d="M5429 6293 c-13 -16 -12 -17 4 -4 9 7 17 15 17 17 0 8 -8 3 -21 -13z"/>
<path d="M2950 6290 c0 -5 5 -10 11 -10 5 0 7 5 4 10 -3 6 -8 10 -11 10 -2 0
-4 -4 -4 -10z"/>
<path d="M3913 6275 c-2 -6 -43 -11 -96 -12 -50 -1 -92 -2 -92 -3 0 -1 -31 -3
-70 -5 -102 -5 -227 -15 -250 -19 -11 -2 -26 2 -34 8 -11 8 -13 8 -7 -1 5 -9
-2 -13 -26 -14 -121 -5 -146 -7 -163 -12 -11 -3 -45 -9 -75 -12 -30 -3 -67 -8
-82 -11 -22 -4 -28 -2 -28 11 0 10 -4 13 -12 8 -23 -14 -146 -33 -233 -37 -27
-1 -60 -7 -72 -14 -12 -6 -35 -12 -51 -12 -16 0 -35 -6 -41 -14 -6 -7 -35 -17
-64 -21 -28 -5 -61 -10 -72 -12 -11 -2 -29 -5 -40 -7 -11 -2 -27 -6 -35 -9
-17 -6 -187 -46 -227 -53 -15 -3 -31 -8 -36 -11 -6 -3 -20 -8 -31 -9 -12 -2
-52 -12 -90 -23 -38 -11 -73 -18 -79 -14 -6 3 -7 1 -3 -5 4 -7 1 -12 -7 -12
-7 0 -55 -14 -105 -31 -51 -16 -97 -27 -104 -23 -6 4 -8 3 -5 -3 4 -6 -20 -20
-56 -32 -34 -12 -74 -28 -89 -36 -14 -8 -33 -15 -42 -15 -9 0 -16 -4 -16 -10
0 -5 -8 -10 -18 -10 -10 0 -27 -7 -38 -15 -12 -8 -24 -11 -28 -8 -3 3 -6 1 -6
-5 0 -7 -9 -12 -20 -12 -11 0 -20 -3 -20 -8 0 -4 -24 -18 -52 -32 -29 -13 -55
-27 -58 -31 -11 -14 -68 -38 -75 -31 -3 4 -5 0 -3 -8 1 -8 -3 -14 -9 -12 -7 1
-13 -2 -13 -7 0 -4 -24 -24 -53 -43 -88 -59 -247 -225 -230 -242 3 -3 2 -6 -3
-6 -12 0 -38 -51 -58 -113 -10 -33 -14 -77 -12 -135 2 -74 8 -97 36 -156 31
-65 46 -88 78 -122 7 -8 11 -14 8 -14 -6 0 21 -27 86 -87 25 -23 43 -45 40
-49 -4 -4 -1 -4 5 0 8 4 23 -3 37 -18 13 -14 28 -26 33 -26 5 0 17 -8 26 -18
15 -17 17 -65 17 -483 l0 -465 -55 -39 c-31 -22 -60 -39 -65 -38 -6 2 -9 0 -8
-5 4 -11 -44 -62 -54 -56 -4 3 -8 0 -8 -5 0 -6 -20 -32 -44 -57 -24 -26 -59
-76 -77 -113 -19 -36 -36 -68 -39 -71 -6 -6 -10 -29 -16 -110 -3 -36 -7 -73
-9 -83 -2 -9 1 -15 5 -12 5 3 9 -3 9 -12 0 -26 5 -44 24 -80 10 -18 17 -35 17
-38 -1 -10 65 -105 72 -105 5 0 8 -5 8 -10 0 -6 11 -21 25 -34 13 -13 21 -26
17 -30 -4 -4 0 -6 8 -4 8 2 14 -3 12 -10 -1 -8 2 -11 8 -7 5 3 10 1 10 -5 0
-6 3 -9 8 -7 4 3 13 -1 20 -9 7 -8 9 -14 5 -14 -4 0 10 -11 31 -25 21 -13 42
-27 45 -32 3 -4 15 -13 26 -20 11 -6 19 -16 17 -23 -1 -6 2 -8 8 -5 6 4 28 -4
49 -18 21 -14 71 -42 112 -62 41 -21 77 -42 80 -47 3 -5 9 -9 13 -9 15 3 56
-12 56 -20 0 -5 9 -9 20 -9 11 0 20 -4 20 -10 0 -5 3 -9 8 -8 13 4 82 -23 78
-30 -2 -4 7 -8 20 -9 44 -4 54 -6 54 -12 0 -4 21 -13 48 -20 26 -8 54 -18 62
-22 17 -9 69 -21 72 -17 2 2 14 -5 27 -14 13 -9 30 -14 39 -11 11 5 13 3 7 -7
-5 -8 -4 -11 3 -6 13 8 102 -15 102 -27 0 -4 3 -6 8 -3 6 4 38 -3 142 -29 8
-2 15 -4 15 -5 0 -2 13 -5 55 -13 14 -3 93 -19 175 -35 160 -33 183 -37 254
-49 25 -4 49 -8 54 -9 4 -1 19 -2 33 -3 17 -1 23 -5 18 -13 -6 -10 -5 -10 8
-1 8 7 17 11 19 8 6 -6 56 -13 199 -30 25 -3 59 -8 75 -12 17 -3 50 -7 75 -8
25 -2 63 -5 85 -8 22 -3 68 -8 102 -12 l62 -6 -10 33 c-6 18 -13 42 -16 53 -4
11 -11 23 -16 26 -5 4 -9 18 -9 33 0 14 -6 26 -12 27 -121 5 -237 20 -416 51
-63 11 -128 21 -145 23 -16 2 -41 7 -55 10 -14 4 -33 7 -43 7 -10 -1 -15 4
-11 10 4 7 2 8 -4 4 -13 -8 -183 24 -177 33 1 3 -13 7 -33 8 -19 1 -39 8 -43
15 -7 10 -9 10 -9 -2 0 -11 -3 -11 -12 -2 -7 7 -20 12 -30 12 -28 0 -98 24
-98 33 0 5 -4 6 -9 3 -11 -7 -115 25 -119 36 -2 5 -8 5 -13 2 -6 -3 -17 0 -26
8 -9 7 -18 11 -20 9 -12 -11 -339 135 -371 165 -6 7 -21 16 -32 19 -11 3 -20
11 -20 16 0 5 -6 9 -13 9 -7 0 -20 8 -28 18 -9 9 -28 25 -42 36 -15 10 -24 22
-21 27 3 5 -2 9 -10 9 -8 0 -18 9 -21 20 -3 11 -11 20 -16 20 -5 0 -9 9 -9 19
0 11 -4 21 -9 23 -27 9 -7 178 20 178 5 0 9 6 9 13 0 19 123 137 143 137 4 0
17 9 29 20 12 10 25 17 30 14 4 -3 8 0 8 6 0 6 5 8 10 5 6 -3 10 -1 10 5 0 11
68 45 83 42 4 -1 7 3 7 8 0 6 4 10 9 10 5 0 22 5 38 12 15 6 30 12 33 13 3 1
19 7 35 14 39 15 59 22 65 23 3 0 13 4 23 10 10 5 28 12 40 14 31 7 39 10 70
22 15 7 31 11 35 10 4 -1 20 4 35 10 36 15 50 15 67 0 12 -11 12 -10 2 3 -11
15 -1 20 104 44 64 15 134 28 154 29 21 0 36 4 34 7 -2 3 27 11 64 17 37 7 83
15 102 18 133 24 183 27 174 12 -6 -10 -5 -10 7 -2 8 6 61 16 119 23 153 17
180 20 234 27 35 5 51 3 57 -7 8 -11 9 -9 7 6 -3 22 -7 21 137 30 39 2 70 5
70 6 0 2 69 6 225 14 280 13 290 13 290 1 0 -8 2 -8 8 0 5 9 95 11 337 8 373
-5 401 -6 398 -20 -1 -6 12 -9 28 -8 32 2 281 -13 339 -20 34 -5 150 -8 180
-6 14 1 85 -7 135 -15 11 -2 35 -4 53 -4 18 -1 31 -4 29 -8 -3 -5 15 -7 40 -7
25 1 64 -3 87 -8 22 -5 50 -11 61 -13 11 -1 40 -6 65 -9 59 -9 85 -14 85 -17
0 -1 11 -3 25 -4 14 -2 36 -6 50 -9 26 -6 56 -12 100 -20 14 -3 34 -7 45 -10
11 -3 59 -15 108 -27 48 -11 85 -25 82 -30 -4 -5 1 -6 9 -3 8 3 31 0 51 -6 20
-7 42 -13 48 -14 7 -2 19 -6 27 -9 8 -3 44 -15 80 -27 82 -27 120 -43 120 -50
0 -3 9 -6 21 -7 30 -3 205 -98 271 -149 64 -50 128 -127 128 -155 0 -11 5 -19
10 -19 18 0 11 -112 -10 -159 -18 -38 -70 -111 -70 -97 0 3 -15 -10 -32 -27
-35 -35 -91 -74 -96 -66 -2 2 -8 -3 -13 -12 -5 -9 -21 -20 -36 -24 -15 -3 -30
-10 -33 -14 -7 -12 -120 -62 -142 -64 -10 -1 -18 -5 -18 -10 0 -4 -4 -6 -9 -3
-5 4 -11 2 -13 -2 -3 -7 -70 -34 -118 -47 -8 -2 -36 -10 -62 -18 -26 -8 -49
-12 -52 -9 -4 3 -6 0 -6 -6 0 -7 -13 -12 -29 -12 -17 0 -32 -4 -36 -9 -3 -6
-14 -8 -25 -6 -11 2 -20 0 -20 -5 0 -5 -9 -7 -20 -5 -11 2 -20 0 -20 -4 0 -4
-53 -18 -117 -31 -65 -13 -125 -27 -134 -31 -9 -5 -21 -3 -29 4 -8 8 -11 8 -7
1 4 -7 -3 -14 -17 -16 -17 -4 -23 -1 -19 9 10 27 -7 11 -69 -62 -60 -72 -161
-145 -200 -145 -8 0 -23 -7 -34 -15 -17 -13 -17 -14 13 -6 17 5 34 6 38 3 3
-4 10 0 15 8 7 11 10 12 10 2 0 -7 4 -11 8 -8 9 5 48 14 102 21 19 3 46 7 60
10 13 2 42 7 65 11 22 3 60 10 85 15 25 6 57 12 72 14 15 2 36 6 47 10 11 3
30 8 43 10 13 3 51 12 86 20 34 9 66 14 71 10 5 -3 11 -1 13 5 1 5 18 10 36
12 17 1 32 7 32 12 0 5 3 7 6 3 3 -3 28 1 56 9 27 9 57 13 65 10 8 -3 12 -2 9
3 -3 5 16 14 42 22 26 7 49 13 52 14 34 10 97 29 103 31 4 1 8 2 10 4 1 1 9 3
17 5 8 2 60 20 115 41 55 20 106 36 113 37 6 0 12 4 12 8 0 4 17 13 38 20 20
6 42 15 48 20 6 5 14 6 17 2 4 -3 7 -1 7 5 0 7 9 12 20 12 11 0 20 4 20 9 0 8
49 25 59 21 2 -1 7 2 10 7 10 14 81 53 97 53 8 0 14 4 14 9 0 5 14 14 30 21
17 7 30 16 30 21 0 5 11 11 25 15 14 3 22 10 19 15 -3 5 4 9 16 9 12 0 19 4
15 9 -3 5 3 12 12 15 10 3 40 25 66 49 26 24 47 42 47 39 0 -2 21 21 46 52 26
32 51 53 58 49 6 -3 8 -3 4 2 -4 4 4 30 19 58 14 28 32 69 40 91 18 48 25 216
10 216 -6 0 -8 3 -4 6 3 3 -1 24 -9 46 -7 22 -11 45 -7 51 3 6 1 7 -5 3 -7 -4
-19 9 -31 32 -11 21 -27 44 -35 51 -9 8 -16 18 -16 23 0 13 -26 38 -39 38 -6
0 -10 4 -8 8 3 10 -52 62 -110 104 -24 17 -43 35 -43 40 0 5 -4 7 -8 4 -5 -3
-15 3 -23 12 -11 13 -13 48 -12 157 2 77 3 147 3 155 0 8 -1 156 -2 329 l-3
314 55 41 c30 22 70 55 88 73 18 18 35 33 37 33 3 0 14 9 25 20 11 11 17 20
14 20 -4 0 5 11 20 25 14 13 26 29 26 34 0 6 6 14 12 18 13 8 35 48 64 118 32
78 27 208 -13 302 -7 18 -14 36 -15 40 -2 5 -8 15 -15 23 -7 8 -13 18 -14 22
0 9 -43 60 -81 98 -16 15 -28 32 -28 39 0 6 -3 10 -8 8 -4 -1 -14 4 -22 11
-54 46 -82 67 -140 106 -36 24 -85 54 -110 67 -25 13 -47 27 -50 30 -5 6 -61
33 -195 95 -33 15 -62 28 -65 28 -3 1 -9 4 -15 7 -5 3 -30 12 -55 19 -25 7
-49 17 -54 22 -6 4 -16 8 -23 8 -8 0 -30 7 -51 17 -20 9 -43 15 -49 14 -7 -1
-13 3 -13 9 0 6 -4 8 -10 5 -5 -3 -16 -3 -22 2 -7 4 -15 8 -18 9 -3 1 -20 5
-37 9 -18 4 -33 11 -33 16 0 5 -6 6 -12 4 -18 -7 -130 30 -121 39 4 4 0 4 -8
1 -8 -3 -60 6 -115 21 -54 14 -112 27 -129 29 -16 1 -37 5 -45 8 -8 4 -37 11
-65 16 l-50 9 40 2 40 3 -45 7 c-133 23 -252 42 -305 51 -33 5 -85 14 -115 20
-30 6 -93 13 -140 16 -47 2 -86 9 -88 13 -2 5 -11 6 -19 3 -13 -5 -15 -2 -10
12 6 14 5 16 -6 7 -15 -13 -95 -10 -282 7 -321 31 -1213 49 -1222 26z m380
-579 c6 7 155 6 361 -2 148 -6 149 -6 158 -19 5 -6 8 -6 8 2 0 6 9 10 19 8 11
-2 62 -6 113 -10 51 -3 116 -8 143 -11 121 -11 140 -13 140 -14 0 -1 16 -3 35
-5 40 -3 133 -14 170 -20 14 -2 61 -9 105 -15 44 -6 87 -14 95 -17 8 -3 31 -7
50 -8 19 -2 35 -4 35 -5 0 -1 16 -3 35 -6 30 -4 69 -10 78 -13 1 -1 4 -2 7 -3
2 0 35 -7 72 -15 92 -18 103 -21 138 -28 44 -9 228 -56 245 -62 8 -3 21 -7 29
-9 8 -1 26 -6 40 -10 14 -4 28 -8 31 -9 33 -8 128 -37 140 -42 8 -3 18 -7 23
-8 4 -2 9 -4 12 -5 3 -1 8 -3 13 -5 10 -3 31 -11 152 -57 118 -45 242 -103
235 -110 -2 -2 6 -5 18 -5 12 -1 23 -7 25 -13 2 -5 12 -10 23 -10 11 0 22 -7
25 -15 4 -8 12 -15 20 -15 13 0 134 -80 166 -109 73 -69 112 -111 131 -141 11
-19 25 -38 29 -41 14 -9 4 -60 -14 -70 -25 -14 -40 -3 -73 52 -31 52 -135 159
-154 159 -6 0 -11 4 -11 8 0 5 -16 17 -35 28 -19 10 -35 22 -35 27 0 4 -4 6
-9 2 -5 -3 -17 5 -26 17 -8 13 -19 22 -23 21 -11 -4 -62 21 -62 29 0 5 -5 8
-11 8 -19 0 -169 73 -169 82 0 5 -4 7 -8 4 -7 -4 -94 25 -177 60 -11 4 -24 8
-30 9 -5 0 -14 3 -20 7 -9 5 -158 54 -195 64 -114 29 -146 39 -148 46 -2 4 -7
6 -12 3 -4 -3 -54 7 -111 21 -57 14 -113 27 -124 29 -11 1 -69 12 -130 24 -60
12 -125 24 -144 27 -18 3 -43 8 -55 10 -11 2 -37 6 -56 9 -19 3 -45 7 -57 9
-12 3 -46 7 -75 11 -29 3 -69 8 -88 11 -19 3 -51 7 -70 8 -19 2 -57 7 -85 10
-27 4 -77 9 -110 11 -33 3 -94 8 -135 11 -41 4 -99 7 -127 8 -29 0 -53 3 -53
6 0 11 -775 16 -808 6 -14 -5 -22 -3 -22 4 0 6 -5 8 -12 3 -7 -4 -40 -9 -73
-10 -59 -2 -202 -12 -257 -17 -16 -2 -28 2 -28 8 0 7 -3 6 -8 -2 -5 -6 -19
-12 -33 -11 -13 1 -42 -1 -64 -4 -22 -4 -69 -9 -105 -12 -115 -10 -150 -14
-160 -20 -6 -3 -10 -1 -10 6 0 9 -3 9 -14 0 -8 -7 -38 -14 -68 -16 -29 -2 -53
-4 -53 -5 0 -2 -28 -7 -75 -14 -23 -3 -46 -9 -52 -12 -7 -5 -8 -2 -3 5 6 10 3
11 -11 3 -17 -8 -98 -25 -189 -38 -36 -5 -70 -12 -70 -14 0 -2 -12 -4 -55 -13
-14 -3 -68 -15 -120 -27 -143 -32 -144 -32 -157 -33 -7 0 -13 -3 -13 -7 0 -6
-27 -11 -72 -14 -14 0 -24 -4 -22 -8 4 -5 -41 -19 -63 -20 -5 0 -13 -4 -20
-10 -7 -5 -17 -7 -23 -3 -5 3 -10 2 -10 -2 0 -9 -127 -49 -147 -47 -7 1 -10
-2 -7 -7 5 -8 -18 -13 -53 -12 -7 1 -11 -3 -8 -7 2 -4 -15 -13 -38 -20 -23 -8
-47 -18 -54 -23 -7 -5 -16 -6 -22 -3 -5 3 -11 2 -13 -2 -1 -5 -39 -26 -83 -46
-90 -42 -238 -126 -243 -138 -2 -4 -9 -8 -16 -8 -7 0 -21 -9 -31 -20 -10 -11
-22 -20 -26 -20 -8 0 -66 -56 -106 -103 -12 -15 -32 -45 -43 -67 -11 -22 -25
-38 -31 -35 -5 4 -8 1 -7 -6 4 -16 -22 -19 -40 -6 -15 12 -12 68 5 74 7 3 11
9 8 13 -9 14 120 170 141 170 3 0 17 11 30 25 13 14 26 25 29 25 4 0 21 11 39
25 18 14 38 25 44 25 7 0 12 4 12 8 0 9 60 40 73 38 5 0 13 7 18 17 6 9 15 17
21 17 10 0 97 39 161 71 10 6 23 7 29 3 7 -4 8 -3 4 4 -4 7 7 13 29 18 19 3
35 9 35 13 0 4 21 13 47 20 27 8 51 19 55 25 5 7 8 7 8 -2 0 -10 5 -9 17 4 12
11 18 13 21 5 3 -8 8 -7 16 3 6 9 20 17 31 19 11 2 27 7 35 10 49 19 91 27
101 21 8 -4 9 -3 5 4 -5 8 1 12 14 12 12 0 18 4 15 10 -3 5 0 7 9 4 8 -3 41 2
73 12 66 20 79 23 111 26 12 1 22 6 22 10 0 4 3 7 8 6 11 -2 85 14 103 23 9 5
21 3 27 -3 8 -8 12 -8 12 -1 0 11 107 36 121 27 5 -3 9 -1 9 5 0 5 8 9 18 9 9
0 58 7 107 17 50 10 106 19 126 20 19 1 39 4 45 7 9 6 95 19 149 23 17 1 39 4
50 8 11 3 52 8 90 12 39 3 86 8 105 10 67 9 156 16 230 20 41 2 75 4 75 5 0 4
120 10 340 16 132 3 242 8 244 10 2 2 9 -1 16 -6 7 -5 15 -7 18 -4z m-71 -300
c6 -8 8 -8 8 0 0 7 20 10 58 8 82 -6 198 -11 266 -13 52 -1 58 -3 53 -20 -2
-10 0 -25 4 -34 12 -20 -3 -29 -50 -32 -43 -2 -73 -14 -66 -25 3 -5 1 -11 -3
-14 -5 -3 -9 -30 -8 -61 1 -30 -2 -55 -7 -55 -6 0 -6 -5 0 -12 5 -7 8 -35 6
-63 -4 -60 -4 -60 0 -110 2 -22 -1 -46 -6 -52 -6 -8 -6 -13 0 -13 6 0 8 -12 6
-27 -2 -16 -4 -32 -4 -38 4 -73 10 -115 19 -132 6 -11 8 -23 5 -27 -3 -3 -1
-6 6 -6 7 0 10 -4 7 -8 -3 -5 6 -16 19 -26 14 -10 22 -24 18 -30 -3 -6 -3 -8
2 -4 4 4 21 -2 36 -13 16 -11 29 -18 29 -15 0 4 15 0 34 -8 80 -33 239 -8 291
48 12 13 26 22 30 18 4 -4 6 -2 4 3 -4 16 12 65 21 65 9 0 8 503 -1 531 -12
40 -32 51 -114 63 -16 2 -20 11 -21 40 l-1 36 76 -1 c42 -1 81 -5 88 -11 6 -5
14 -5 17 0 3 5 25 7 48 4 24 -2 71 -5 105 -6 35 0 64 -5 64 -11 4 -34 3 -41
-6 -54 -8 -12 -7 -13 5 -6 9 5 12 5 7 -1 -5 -5 -23 -10 -40 -10 -53 -3 -86 -8
-85 -14 1 -17 -16 -49 -23 -44 -5 3 -5 -6 0 -19 6 -14 8 -27 5 -29 -3 -4 -5
-98 -3 -208 3 -147 -14 -320 -32 -320 -5 0 -8 -3 -7 -7 12 -46 -112 -166 -182
-176 -10 -2 -24 -7 -32 -13 -13 -10 -210 -11 -258 -1 -14 3 -41 8 -60 11 -19
4 -56 18 -82 31 -26 13 -48 21 -48 17 0 -3 -7 4 -16 16 -8 12 -19 20 -24 17
-4 -3 -16 8 -25 23 -10 15 -24 31 -32 35 -7 4 -13 14 -13 22 0 7 -5 15 -11 17
-7 2 -12 18 -13 35 0 17 -4 29 -8 26 -5 -2 -9 6 -10 19 0 13 -3 37 -5 53 -3
26 -4 125 -2 143 1 4 1 12 0 17 -1 6 -2 89 -2 186 0 174 0 176 -24 197 -14 12
-42 23 -62 25 -36 2 -38 4 -40 40 0 20 3 34 8 31 5 -3 9 -1 9 4 0 12 63 2 72
-12z m-437 -55 c2 -35 -7 -40 -81 -44 -23 -1 -40 -5 -37 -10 2 -4 -2 -10 -10
-13 -7 -2 -15 -10 -16 -17 -1 -7 -3 -146 -4 -309 -2 -163 -6 -300 -9 -304 -4
-4 -4 -14 1 -23 4 -9 7 -23 6 -31 -3 -35 15 -41 112 -36 124 7 187 16 191 27
2 5 8 7 12 4 5 -3 16 5 24 17 9 12 16 18 16 13 0 -6 5 -2 11 8 6 9 15 14 21
11 7 -4 8 -2 4 5 -5 7 1 20 14 31 12 10 20 20 18 22 -7 8 32 49 41 44 6 -4 9
-1 6 6 -4 10 3 14 27 13 18 -1 36 -3 41 -3 4 -1 -1 -19 -12 -39 -10 -21 -19
-40 -19 -43 0 -3 -6 -18 -12 -35 -6 -16 -11 -31 -10 -33 1 -2 -5 -13 -13 -25
-7 -12 -17 -34 -21 -49 -3 -16 -11 -28 -16 -28 -5 0 -7 -6 -4 -14 4 -10 -1
-15 -13 -14 -19 0 -158 -8 -278 -17 -38 -3 -106 -8 -150 -10 -44 -2 -80 -4
-80 -5 0 -1 -12 -3 -28 -5 -19 -3 -25 0 -20 8 5 9 3 9 -8 0 -8 -6 -59 -13
-119 -15 l-104 -3 -1 36 c-1 35 1 38 43 40 29 1 77 22 87 38 15 25 15 28 14
356 -1 355 -1 355 -10 349 -4 -2 -9 2 -12 9 -3 8 -25 14 -58 16 -30 1 -55 4
-57 6 -7 7 -8 66 -2 70 4 2 47 7 96 10 49 3 100 7 112 10 13 2 22 -1 22 -8 0
-8 3 -8 8 -2 9 12 5 12 127 19 54 4 101 9 103 11 2 2 13 0 25 -4 14 -5 21 -17
22 -40z m1588 3 c40 -2 86 -6 102 -9 17 -2 40 -4 53 -4 16 -1 21 -5 16 -13 -6
-10 -4 -10 7 -2 8 6 23 10 34 8 11 -2 40 -6 65 -9 80 -8 180 -28 180 -35 0 -4
11 -6 25 -4 14 1 31 -3 38 -9 6 -7 26 -13 42 -15 17 -2 37 -9 45 -16 8 -6 28
-18 43 -26 105 -53 171 -173 145 -266 -12 -45 -49 -81 -100 -96 l-40 -12 29
-14 c35 -18 145 -131 137 -143 -3 -5 -1 -9 5 -9 10 0 21 -39 26 -98 4 -41 -13
-112 -27 -112 -5 0 -6 -4 -3 -10 3 -5 1 -10 -4 -10 -6 0 -11 -5 -11 -11 0 -6
-6 -16 -13 -23 -17 -17 -80 -51 -89 -48 -5 1 -8 -2 -8 -7 0 -8 -12 -10 -80
-14 -16 -1 -30 -4 -30 -7 0 -6 -67 -3 -120 5 -19 3 -55 8 -80 11 -25 3 -52 8
-60 11 -8 3 -24 7 -35 8 -21 3 -117 16 -150 20 -11 2 -20 4 -20 5 0 1 -15 3
-34 6 -19 2 -46 7 -60 10 -14 3 -42 7 -61 10 -75 9 -74 9 -76 47 l-2 37 66 -2
c60 -3 69 -1 89 22 26 28 25 6 23 395 -1 280 -2 299 -23 319 -16 17 -93 39
-106 32 -14 -9 -37 27 -35 54 2 39 3 42 14 35 6 -4 43 -9 83 -11z m-2350 -45
c9 0 15 -4 13 -8 -5 -7 62 1 117 15 31 7 28 16 31 -128 0 -43 3 -78 6 -78 3 0
5 -11 5 -25 0 -14 -4 -25 -8 -25 -5 0 -5 -4 -2 -10 9 -14 -8 -12 -24 3 -9 7
-11 7 -8 1 4 -7 0 -14 -8 -18 -17 -6 -45 19 -45 40 0 29 -93 124 -122 124 -10
0 -17 4 -14 8 3 5 -22 9 -55 9 -33 0 -62 3 -65 6 -4 3 -14 2 -23 -2 -49 -25
-111 -46 -124 -43 -5 1 -6 -2 -2 -8 3 -5 2 -10 -3 -10 -5 0 -34 -24 -65 -52
-53 -51 -117 -161 -117 -203 0 -10 -5 -14 -12 -9 -10 5 -10 4 -1 -6 7 -8 8
-21 4 -34 -10 -25 -7 -127 4 -176 21 -94 91 -186 170 -221 67 -30 175 -30 248
-1 16 7 32 12 36 12 5 0 14 7 21 15 7 9 15 14 17 11 2 -2 14 6 27 19 37 37 99
115 91 115 -3 0 1 7 9 16 9 8 16 22 16 30 0 7 12 16 28 20 15 3 32 7 39 9 16
5 23 -30 12 -63 -5 -15 -18 -56 -29 -92 -44 -146 -42 -144 -96 -147 -40 -2
-75 -7 -91 -12 -2 -1 -5 -1 -8 -2 -2 0 -27 -9 -55 -19 -27 -10 -48 -15 -45
-10 3 5 -7 2 -22 -5 -62 -30 -205 -35 -316 -11 -43 10 -120 48 -138 68 -9 10
-21 18 -26 18 -12 0 -59 50 -47 50 5 0 1 5 -9 11 -17 10 -53 81 -73 144 -9 28
-10 150 -1 185 2 8 7 30 11 48 14 59 75 163 120 205 16 15 26 27 21 27 -4 0 5
10 20 22 16 12 40 32 53 45 13 12 28 20 32 18 4 -3 10 1 13 8 7 18 95 60 108
51 7 -4 9 -3 5 4 -6 10 30 28 47 24 4 -1 7 2 7 6 0 8 22 13 68 16 12 0 22 4
22 8 0 10 55 14 140 10 41 -1 83 -3 93 -3z m1292 -1010 c6 0 30 0 55 1 98 3
326 -6 338 -13 7 -5 12 -3 12 3 0 6 4 9 9 5 5 -3 60 -7 123 -10 62 -3 138 -7
168 -10 30 -2 89 -7 130 -10 83 -6 162 -14 194 -21 12 -3 46 -7 76 -9 59 -4
128 -12 255 -31 28 -4 56 -7 63 -7 6 0 12 -3 12 -6 0 -3 21 -7 48 -8 42 -2 87
-9 87 -13 0 -1 16 -3 35 -6 19 -2 58 -9 85 -14 28 -6 61 -13 75 -15 14 -3 39
-8 55 -11 17 -4 36 -7 43 -7 6 0 12 -3 12 -6 0 -3 14 -7 31 -7 17 -1 35 -7 40
-15 7 -11 9 -11 9 -1 0 10 5 10 20 2 11 -6 20 -8 20 -5 0 4 5 3 12 -1 7 -4 21
-9 33 -11 25 -3 59 -11 63 -13 1 -2 7 -4 12 -5 6 -1 11 -3 13 -4 1 -2 13 -4
26 -7 28 -5 129 -33 151 -41 8 -3 20 -7 25 -8 33 -8 291 -98 295 -103 3 -4 14
-9 25 -10 18 -4 90 -33 127 -53 10 -5 25 -9 33 -9 8 0 15 -4 15 -9 0 -4 20
-16 45 -25 25 -10 45 -22 45 -27 0 -4 7 -6 15 -3 8 4 15 1 15 -5 0 -6 5 -11
11 -11 18 0 37 -31 31 -52 -4 -17 -8 -20 -34 -21 -23 -2 -137 56 -131 66 3 6
1 7 -5 3 -5 -3 -39 7 -74 23 -34 16 -80 34 -101 41 -20 6 -35 16 -32 21 4 5
-1 6 -9 3 -9 -3 -16 -2 -16 3 0 5 -12 10 -26 11 -15 1 -33 7 -39 12 -7 6 -17
10 -21 9 -5 -1 -21 3 -35 8 -14 6 -44 17 -67 24 -23 7 -42 15 -42 18 0 3 -14
7 -31 7 -17 1 -34 5 -38 10 -3 5 -10 9 -16 10 -21 1 -91 17 -115 27 -14 5 -32
11 -40 12 -8 1 -28 6 -45 10 -16 4 -42 9 -57 12 -15 3 -25 9 -22 14 3 5 -1 6
-9 3 -8 -3 -35 0 -58 6 -24 7 -53 13 -64 15 -11 1 -40 7 -65 13 -25 6 -63 13
-84 16 -68 11 -86 18 -79 30 4 6 1 6 -9 -2 -11 -9 -23 -10 -42 -2 -14 5 -26 7
-26 4 0 -4 -6 -2 -12 2 -7 5 -25 9 -40 8 -16 0 -28 2 -28 5 0 4 -12 6 -27 5
-15 0 -45 3 -67 7 -23 4 -66 10 -96 14 -30 3 -62 8 -70 10 -8 2 -48 7 -89 10
-41 4 -82 8 -90 10 -9 1 -50 6 -91 10 -41 4 -88 8 -103 10 -33 4 -238 17 -279
18 -16 0 -28 4 -28 9 0 5 -8 4 -19 -1 -10 -6 -20 -8 -23 -6 -16 17 -1088 21
-1088 5 0 -3 -19 -6 -42 -6 -24 -1 -86 -4 -138 -9 -52 -4 -122 -9 -155 -10
-33 -2 -61 -5 -62 -6 -9 -6 -30 -4 -42 5 -11 8 -13 8 -8 -1 5 -7 1 -11 -10
-11 -22 1 -142 -12 -163 -17 -8 -2 -42 -7 -75 -10 -33 -4 -71 -8 -85 -11 -14
-2 -45 -6 -70 -10 -77 -10 -85 -11 -85 -13 0 -2 -8 -4 -17 -6 -10 -2 -18 2
-18 8 0 8 -3 8 -8 2 -4 -5 -11 -11 -17 -12 -30 -4 -78 -13 -150 -28 -43 -8
-85 -13 -92 -11 -7 3 -15 1 -18 -3 -2 -5 -19 -12 -37 -15 -18 -3 -44 -9 -58
-12 -14 -3 -34 -7 -45 -9 -11 -1 -27 -5 -35 -8 -8 -4 -28 -8 -45 -11 -16 -2
-31 -5 -32 -6 -2 -2 -6 -3 -10 -4 -5 -1 -17 -5 -28 -9 -11 -3 -31 -8 -45 -11
-36 -6 -127 -31 -186 -51 -28 -9 -57 -18 -65 -19 -8 -2 -27 -9 -44 -15 -16 -7
-40 -15 -51 -17 -12 -2 -37 -11 -56 -19 -20 -8 -38 -11 -42 -8 -3 4 -6 1 -6
-5 0 -7 -9 -12 -20 -12 -11 0 -20 -5 -20 -10 0 -6 -3 -9 -7 -8 -11 4 -95 -28
-178 -67 -38 -18 -74 -34 -80 -35 -5 -1 -17 -8 -25 -15 -8 -7 -28 -17 -44 -21
-33 -8 -57 14 -49 44 4 19 73 62 97 62 8 0 16 5 18 11 2 5 10 11 18 13 8 1 41
14 73 29 32 15 63 24 69 21 6 -4 8 -2 5 3 -6 9 17 20 53 27 3 1 11 5 17 9 24
15 121 45 127 40 3 -4 6 -2 6 4 0 9 25 17 68 24 4 0 12 4 17 9 11 9 76 25 88
22 4 -1 7 2 7 6 0 4 8 9 18 9 9 1 47 11 84 22 36 10 69 17 72 13 3 -3 6 -1 6
5 0 5 6 10 13 10 13 1 31 5 125 28 35 8 67 13 72 10 5 -3 10 0 12 5 2 6 24 12
50 13 25 1 44 5 42 8 -3 5 182 42 214 42 6 0 12 3 12 6 0 3 15 6 33 5 17 0 43
3 57 8 14 4 46 9 72 11 25 3 50 7 55 10 4 3 40 8 78 11 39 4 83 9 99 12 28 5
60 8 166 19 25 3 63 7 85 9 22 3 78 8 124 11 47 3 89 9 94 12 6 4 7 1 2 -6 -6
-10 -3 -11 12 -2 11 5 28 10 39 9 46 -1 226 12 235 17 5 4 9 2 9 -3 0 -6 14
-7 35 -2 24 5 35 4 35 -4 0 -8 2 -8 8 0 5 7 59 11 164 10 87 -1 158 1 158 4 0
4 59 3 115 -1z"/>
<path d="M5660 5215 c-8 -10 -10 -19 -4 -23 12 -9 12 -65 -1 -74 -7 -5 -7 -8
0 -8 6 0 10 -36 9 -89 l-1 -89 36 -8 c110 -24 187 -19 204 11 4 8 11 13 15 11
4 -3 8 3 9 12 1 9 4 38 6 64 3 31 -1 54 -9 65 -7 10 -14 24 -14 31 0 7 -12 25
-27 39 -60 56 -195 91 -223 58z"/>
<path d="M5672 4841 c-5 -3 -9 -52 -8 -108 1 -57 -2 -103 -7 -103 -6 0 -5 -5
0 -12 12 -16 11 -58 -1 -77 -6 -10 -6 -12 2 -7 8 5 12 0 12 -13 0 -36 9 -47
65 -77 29 -15 143 -18 161 -4 8 7 14 9 14 5 0 -16 50 47 56 70 3 14 11 22 17
18 6 -4 7 -1 2 6 -4 7 -8 36 -10 64 -2 49 -41 157 -55 157 -4 0 -20 11 -36 25
-16 14 -35 25 -42 25 -7 0 -10 4 -7 10 3 5 0 7 -8 4 -7 -2 -34 0 -58 6 -63 15
-86 18 -97 11z"/>
<path d="M6355 6223 c-45 -43 -50 -50 -20 -28 33 23 95 86 83 85 -2 -1 -30
-26 -63 -57z"/>
<path d="M2960 6265 c0 -5 5 -17 10 -25 5 -8 10 -10 10 -5 0 6 -5 17 -10 25
-5 8 -10 11 -10 5z"/>
<path d="M5351 6254 c0 -11 3 -14 6 -6 3 7 2 16 -1 19 -3 4 -6 -2 -5 -13z"/>
<path d="M5780 6210 c0 -13 20 -13 40 0 12 8 9 10 -12 10 -16 0 -28 -4 -28
-10z"/>
<path d="M6270 6160 c-9 -6 -10 -10 -3 -10 6 0 15 5 18 10 8 12 4 12 -15 0z"/>
<path d="M4811 3554 c0 -11 3 -14 6 -6 3 7 2 16 -1 19 -3 4 -6 -2 -5 -13z"/>
<path d="M3332 3520 c0 -14 2 -19 5 -12 2 6 2 18 0 25 -3 6 -5 1 -5 -13z"/>
<path d="M5332 3500 c0 -19 2 -27 5 -17 2 9 2 25 0 35 -3 9 -5 1 -5 -18z"/>
<path d="M4822 3480 c0 -14 2 -19 5 -12 2 6 2 18 0 25 -3 6 -5 1 -5 -13z"/>
<path d="M2916 3467 c3 -10 9 -15 12 -12 3 3 0 11 -7 18 -10 9 -11 8 -5 -6z"/>
<path d="M3342 3425 c0 -16 2 -22 5 -12 2 9 2 23 0 30 -3 6 -5 -1 -5 -18z"/>
<path d="M3900 3446 c0 -2 7 -6 15 -10 8 -3 15 -1 15 4 0 6 -7 10 -15 10 -8 0
-15 -2 -15 -4z"/>
<path d="M3785 3410 c-13 -6 -15 -9 -5 -9 8 0 22 4 30 9 18 12 2 12 -25 0z"/>
<path d="M4078 3413 c7 -3 16 -2 19 1 4 3 -2 6 -13 5 -11 0 -14 -3 -6 -6z"/>
<path d="M5341 3394 c0 -11 3 -14 6 -6 3 7 2 16 -1 19 -3 4 -6 -2 -5 -13z"/>
<path d="M4061 3384 c0 -11 3 -14 6 -6 3 7 2 16 -1 19 -3 4 -6 -2 -5 -13z"/>
<path d="M2932 3360 c0 -14 2 -19 5 -12 2 6 2 18 0 25 -3 6 -5 1 -5 -13z"/>
<path d="M3695 3370 c-3 -6 1 -7 9 -4 18 7 21 14 7 14 -6 0 -13 -4 -16 -10z"/>
<path d="M3655 3350 c-3 -6 1 -7 9 -4 18 7 21 14 7 14 -6 0 -13 -4 -16 -10z"/>
<path d="M4842 3340 c0 -14 2 -19 5 -12 2 6 2 18 0 25 -3 6 -5 1 -5 -13z"/>
<path d="M3351 3334 c0 -11 3 -14 6 -6 3 7 2 16 -1 19 -3 4 -6 -2 -5 -13z"/>
<path d="M4071 3334 c0 -11 3 -14 6 -6 3 7 2 16 -1 19 -3 4 -6 -2 -5 -13z"/>
<path d="M3596 3315 c-11 -8 -15 -15 -9 -15 6 0 16 7 23 15 16 19 11 19 -14 0z"/>
<path d="M3871 3314 c0 -11 3 -14 6 -6 3 7 2 16 -1 19 -3 4 -6 -2 -5 -13z"/>
<path d="M5352 3295 c0 -16 2 -22 5 -12 2 9 2 23 0 30 -3 6 -5 -1 -5 -18z"/>
<path d="M2941 3294 c0 -11 3 -14 6 -6 3 7 2 16 -1 19 -3 4 -6 -2 -5 -13z"/>
<path d="M3361 3274 c0 -11 3 -14 6 -6 3 7 2 16 -1 19 -3 4 -6 -2 -5 -13z"/>
<path d="M3534 3258 l-29 -33 33 29 c30 28 37 36 29 36 -2 0 -16 -15 -33 -32z"/>
<path d="M4851 3244 c0 -11 3 -14 6 -6 3 7 2 16 -1 19 -3 4 -6 -2 -5 -13z"/>
<path d="M2951 3234 c0 -11 3 -14 6 -6 3 7 2 16 -1 19 -3 4 -6 -2 -5 -13z"/>
<path d="M3851 3224 c0 -11 3 -14 6 -6 3 7 2 16 -1 19 -3 4 -6 -2 -5 -13z"/>
<path d="M4512 3224 c10 -10 20 -16 22 -13 3 3 -5 11 -17 18 -21 13 -21 12 -5
-5z"/>
<path d="M2170 3226 c0 -2 6 -9 13 -15 10 -8 14 -7 14 4 0 8 -6 15 -14 15 -7
0 -13 -2 -13 -4z"/>
<path d="M2363 3223 c9 -2 23 -2 30 0 6 3 -1 5 -18 5 -16 0 -22 -2 -12 -5z"/>
<path d="M3371 3214 c0 -11 3 -14 6 -6 3 7 2 16 -1 19 -3 4 -6 -2 -5 -13z"/>
<path d="M4092 3210 c0 -14 2 -19 5 -12 2 6 2 18 0 25 -3 6 -5 1 -5 -13z"/>
<path d="M2468 3213 c6 -2 18 -2 25 0 6 3 1 5 -13 5 -14 0 -19 -2 -12 -5z"/>
<path d="M3490 3205 c-7 -9 -11 -17 -9 -20 3 -2 10 5 17 15 14 24 10 26 -8 5z"/>
<path d="M2528 3203 c7 -3 16 -2 19 1 4 3 -2 6 -13 5 -11 0 -14 -3 -6 -6z"/>
<path d="M6150 3206 c0 -8 61 -12 66 -4 3 4 -11 8 -30 8 -20 0 -36 -2 -36 -4z"/>
<path d="M5362 3155 c0 -16 2 -22 5 -12 2 9 2 23 0 30 -3 6 -5 -1 -5 -18z"/>
<path d="M2660 3166 c0 -2 7 -7 16 -10 8 -3 12 -2 9 4 -6 10 -25 14 -25 6z"/>
<path d="M4605 3150 c10 -11 20 -20 23 -20 3 0 -3 9 -13 20 -10 11 -20 20 -23
20 -3 0 3 -9 13 -20z"/>
<path d="M4862 3135 c0 -16 2 -22 5 -12 2 9 2 23 0 30 -3 6 -5 -1 -5 -18z"/>
<path d="M6160 3140 c-6 -11 -8 -20 -6 -20 3 0 10 9 16 20 6 11 8 20 6 20 -3
0 -10 -9 -16 -20z"/>
<path d="M3842 3120 c0 -19 2 -27 5 -17 2 9 2 25 0 35 -3 9 -5 1 -5 -18z"/>
<path d="M4102 3130 c0 -14 2 -19 5 -12 2 6 2 18 0 25 -3 6 -5 1 -5 -13z"/>
<path d="M2246 3117 c3 -10 9 -15 12 -12 3 3 0 11 -7 18 -10 9 -11 8 -5 -6z"/>
<path d="M3391 3114 c0 -11 3 -14 6 -6 3 7 2 16 -1 19 -3 4 -6 -2 -5 -13z"/>
<path d="M2753 3105 c0 -8 4 -12 8 -9 4 2 9 -2 12 -8 2 -7 7 -10 11 -7 3 3 -2
13 -12 22 -15 14 -19 15 -19 2z"/>
<path d="M5775 3110 c-3 -6 1 -7 9 -4 18 7 21 14 7 14 -6 0 -13 -4 -16 -10z"/>
<path d="M3401 3074 c0 -11 3 -14 6 -6 3 7 2 16 -1 19 -3 4 -6 -2 -5 -13z"/>
<path d="M5714 3074 c-18 -14 -18 -15 4 -4 12 6 22 13 22 15 0 8 -5 6 -26 -11z"/>
<path d="M2276 3057 c3 -10 9 -15 12 -12 3 3 0 11 -7 18 -10 9 -11 8 -5 -6z"/>
<path d="M2813 3045 c0 -8 3 -13 5 -10 3 3 12 -1 21 -7 10 -8 9 -4 -3 10 -23
26 -23 26 -23 7z"/>
<path d="M4715 3040 c10 -11 20 -20 23 -20 3 0 -3 9 -13 20 -10 11 -20 20 -23
20 -3 0 3 -9 13 -20z"/>
<path d="M6106 3045 c-9 -26 -7 -32 5 -12 6 10 9 21 6 23 -2 3 -7 -2 -11 -11z"/>
<path d="M3431 3034 c0 -11 3 -14 6 -6 3 7 2 16 -1 19 -3 4 -6 -2 -5 -13z"/>
<path d="M5635 3008 c-22 -23 -33 -37 -24 -30 9 6 18 11 20 9 2 -1 3 0 1 2 -1
3 10 17 25 33 15 15 25 28 22 28 -3 0 -23 -19 -44 -42z"/>
<path d="M4113 3005 c0 -22 2 -30 4 -17 2 12 2 30 0 40 -3 9 -5 -1 -4 -23z"/>
<path d="M5373 2985 c0 -27 2 -38 4 -22 2 15 2 37 0 50 -2 12 -4 0 -4 -28z"/>
<path d="M3842 3000 c0 -14 2 -19 5 -12 2 6 2 18 0 25 -3 6 -5 1 -5 -13z"/>
<path d="M4873 2980 c0 -25 2 -35 4 -22 2 12 2 32 0 45 -2 12 -4 2 -4 -23z"/>
<path d="M4755 2986 c10 -14 19 -26 22 -26 7 0 -17 39 -28 46 -6 3 -3 -5 6
-20z"/>
<path d="M3841 2954 c0 -11 3 -14 6 -6 3 7 2 16 -1 19 -3 4 -6 -2 -5 -13z"/>
<path d="M4122 2870 c0 -14 2 -19 5 -12 2 6 2 18 0 25 -3 6 -5 1 -5 -13z"/>
<path d="M4836 2837 c3 -10 9 -15 12 -12 3 3 0 11 -7 18 -10 9 -11 8 -5 -6z"/>
<path d="M2980 2810 c6 -11 13 -20 16 -20 2 0 0 9 -6 20 -6 11 -13 20 -16 20
-2 0 0 -9 6 -20z"/>
<path d="M3832 2800 c0 -14 2 -19 5 -12 2 6 2 18 0 25 -3 6 -5 1 -5 -13z"/>
<path d="M4861 2764 c0 -11 3 -14 6 -6 3 7 2 16 -1 19 -3 4 -6 -2 -5 -13z"/>
<path d="M4131 2744 c0 -11 3 -14 6 -6 3 7 2 16 -1 19 -3 4 -6 -2 -5 -13z"/>
<path d="M6021 2744 c0 -11 3 -14 6 -6 3 7 2 16 -1 19 -3 4 -6 -2 -5 -13z"/>
<path d="M6012 2680 c0 -14 2 -19 5 -12 2 6 2 18 0 25 -3 6 -5 1 -5 -13z"/>
<path d="M2420 2661 c0 -6 4 -13 10 -16 6 -3 7 1 4 9 -7 18 -14 21 -14 7z"/>
<path d="M5481 2644 c0 -11 3 -14 6 -6 3 7 2 16 -1 19 -3 4 -6 -2 -5 -13z"/>
<path d="M3104 2622 c23 -26 23 -26 23 -7 0 8 -3 13 -5 10 -3 -3 -12 1 -21 7
-10 8 -9 4 3 -10z"/>
<path d="M2450 2601 c0 -6 4 -13 10 -16 6 -3 7 1 4 9 -7 18 -14 21 -14 7z"/>
<path d="M3754 2588 c-4 -7 -14 -24 -22 -38 -14 -24 -13 -24 3 -5 20 24 37 55
31 55 -3 0 -8 -6 -12 -12z"/>
<path d="M5471 2574 c0 -11 3 -14 6 -6 3 7 2 16 -1 19 -3 4 -6 -2 -5 -13z"/>
<path d="M5991 2574 c0 -11 3 -14 6 -6 3 7 2 16 -1 19 -3 4 -6 -2 -5 -13z"/>
<path d="M4170 2566 c0 -8 4 -17 9 -20 5 -4 7 3 4 14 -6 23 -13 26 -13 6z"/>
<path d="M2505 2520 c10 -11 20 -20 23 -20 3 0 -3 9 -13 20 -10 11 -20 20 -23
20 -3 0 3 -9 13 -20z"/>
<path d="M5372 2515 c0 -16 2 -22 5 -12 2 9 2 23 0 30 -3 6 -5 -1 -5 -18z"/>
<path d="M4220 2470 c6 -11 13 -20 16 -20 2 0 0 9 -6 20 -6 11 -13 20 -16 20
-2 0 0 -9 6 -20z"/>
<path d="M2590 2441 c19 -17 39 -31 44 -31 5 0 7 1 5 3 -2 2 -22 15 -44 31
l-40 27 35 -30z"/>
<path d="M3630 2445 c0 -5 5 -17 10 -25 5 -8 10 -10 10 -5 0 6 -5 17 -10 25
-5 8 -10 11 -10 5z"/>
<path d="M4266 2422 c-3 -5 13 -26 34 -47 22 -22 40 -36 40 -32 0 4 -16 21
-35 38 -19 17 -32 35 -29 40 3 5 3 9 0 9 -3 0 -7 -4 -10 -8z"/>
<path d="M2660 2396 c0 -2 7 -7 16 -10 8 -3 12 -2 9 4 -6 10 -25 14 -25 6z"/>
<path d="M3660 2371 c0 -6 4 -13 10 -16 6 -3 7 1 4 9 -7 18 -14 21 -14 7z"/>
<path d="M5362 2355 c0 -16 2 -22 5 -12 2 9 2 23 0 30 -3 6 -5 -1 -5 -18z"/>
<path d="M5926 2363 c-6 -14 -5 -15 5 -6 7 7 10 15 7 18 -3 3 -9 -2 -12 -12z"/>
<path d="M5906 2323 c-6 -14 -5 -15 5 -6 7 7 10 15 7 18 -3 3 -9 -2 -12 -12z"/>
<path d="M4364 2321 c8 -12 96 -74 96 -67 0 2 -23 21 -51 41 -28 20 -48 32
-45 26z"/>
<path d="M2948 2303 c7 -3 16 -2 19 1 4 3 -2 6 -13 5 -11 0 -14 -3 -6 -6z"/>
<path d="M3003 2303 c15 -2 37 -2 50 0 12 2 0 4 -28 4 -27 0 -38 -2 -22 -4z"/>
<path d="M3700 2294 c0 -6 7 -19 16 -30 14 -18 14 -18 3 6 -14 31 -19 36 -19
24z"/>
<path d="M5810 2289 c0 -5 5 -7 10 -4 6 3 10 8 10 11 0 2 -4 4 -10 4 -5 0 -10
-5 -10 -11z"/>
<path d="M3260 2281 c0 -6 4 -13 10 -16 6 -3 7 1 4 9 -7 18 -14 21 -14 7z"/>
<path d="M5375 2279 c-4 -6 -5 -12 -2 -15 2 -3 7 2 10 11 7 17 1 20 -8 4z"/>
<path d="M5350 2244 c0 -8 5 -12 10 -9 6 4 8 11 5 16 -9 14 -15 11 -15 -7z"/>
<path d="M4490 2236 c0 -3 9 -10 20 -16 11 -6 20 -8 20 -6 0 3 -9 10 -20 16
-11 6 -20 8 -20 6z"/>
<path d="M5780 2226 c0 -9 5 -16 10 -16 6 0 10 4 10 9 0 6 -4 13 -10 16 -5 3
-10 -1 -10 -9z"/>
<path d="M4590 2180 c8 -5 20 -10 25 -10 6 0 3 5 -5 10 -8 5 -19 10 -25 10 -5
0 -3 -5 5 -10z"/>
<path d="M3778 2140 c25 -67 90 -177 108 -184 8 -3 12 -11 8 -17 -5 -8 -3 -9
5 -4 9 5 10 10 2 18 -19 19 -12 24 32 22 67 -4 67 -4 60 -22 -4 -13 1 -11 15
6 12 13 22 30 22 36 0 17 119 135 136 135 8 0 14 5 14 10 0 7 -6 7 -18 1 -20
-10 -372 -11 -372 0 0 3 -7 14 -15 25 -11 14 -10 8 3 -26z"/>
<path d="M4630 2170 c0 -6 5 -8 10 -5 6 3 10 0 10 -7 0 -10 -28 -14 -112 -16
-62 -2 -130 -5 -150 -6 -22 -2 -38 2 -38 8 0 18 -17 -8 -29 -44 -16 -51 -22
-138 -11 -145 6 -4 9 -1 8 5 -3 14 61 20 69 7 2 -4 10 -4 16 0 7 4 50 8 97 9
47 1 136 5 198 8 82 4 111 2 106 -6 -4 -7 -3 -8 4 -4 11 7 17 32 25 112 l5 40
-72 13 c-39 7 -74 17 -77 23 -9 13 -59 20 -59 8z"/>
<path d="M3725 2130 c3 -5 8 -10 11 -10 2 0 4 5 4 10 0 6 -5 10 -11 10 -5 0
-7 -4 -4 -10z"/>
<path d="M4160 2110 c0 -5 5 -10 10 -10 6 0 10 5 10 10 0 6 -4 10 -10 10 -5 0
-10 -4 -10 -10z"/>
<path d="M5620 2110 c0 -5 5 -10 10 -10 6 0 10 5 10 10 0 6 -4 10 -10 10 -5 0
-10 -4 -10 -10z"/>
<path d="M5440 2082 c0 -7 -17 -12 -42 -12 -55 0 -85 -9 -92 -25 -3 -9 0 -12
10 -8 10 4 13 0 8 -13 -4 -14 -3 -15 3 -6 6 7 32 15 59 17 90 7 179 17 183 21
2 2 -17 4 -44 4 -31 0 -55 6 -67 17 -11 9 -18 11 -18 5z"/>
<path d="M4115 1990 c3 -5 10 -10 16 -10 5 0 9 5 9 10 0 6 -7 10 -16 10 -8 0
-12 -4 -9 -10z"/>
<path d="M3434 1939 c-3 -6 -2 -15 3 -20 5 -5 9 -1 9 11 0 23 -2 24 -12 9z"/>
<path d="M3981 1914 c0 -11 3 -14 6 -6 3 7 2 16 -1 19 -3 4 -6 -2 -5 -13z"/>
<path d="M5301 1904 c0 -11 3 -14 6 -6 3 7 2 16 -1 19 -3 4 -6 -2 -5 -13z"/>
<path d="M2918 1903 c6 -2 18 -2 25 0 6 3 1 5 -13 5 -14 0 -19 -2 -12 -5z"/>
<path d="M3098 1903 c7 -3 16 -2 19 1 4 3 -2 6 -13 5 -11 0 -14 -3 -6 -6z"/>
<path d="M2858 1893 c7 -3 16 -2 19 1 4 3 -2 6 -13 5 -11 0 -14 -3 -6 -6z"/>
<path d="M2810 1880 c0 -5 7 -7 15 -4 8 4 15 8 15 10 0 2 -7 4 -15 4 -8 0 -15
-4 -15 -10z"/>
<path d="M3210 1870 c8 -5 20 -10 25 -10 6 0 3 5 -5 10 -8 5 -19 10 -25 10 -5
0 -3 -5 5 -10z"/>
<path d="M3950 1865 c0 -2 7 -8 15 -15 12 -10 15 -10 15 2 0 8 -7 15 -15 15
-8 0 -15 -1 -15 -2z"/>
<path d="M4771 1844 c0 -11 3 -14 6 -6 3 7 2 16 -1 19 -3 4 -6 -2 -5 -13z"/>
<path d="M3300 1826 c0 -3 9 -10 20 -16 11 -6 20 -8 20 -6 0 3 -9 10 -20 16
-11 6 -20 8 -20 6z"/>
<path d="M2530 1789 c0 -5 5 -7 10 -4 6 3 10 8 10 11 0 2 -4 4 -10 4 -5 0 -10
-5 -10 -11z"/>
<path d="M3405 1750 c10 -11 20 -20 23 -20 3 0 -3 9 -13 20 -10 11 -20 20 -23
20 -3 0 3 -9 13 -20z"/>
<path d="M2620 1727 c0 -2 15 -16 33 -33 l32 -29 -29 33 c-28 30 -36 37 -36
29z"/>
<path d="M3440 1726 c0 -2 8 -10 18 -17 15 -13 16 -12 3 4 -13 16 -21 21 -21
13z"/>
<path d="M4301 1714 c0 -11 3 -14 6 -6 3 7 2 16 -1 19 -3 4 -6 -2 -5 -13z"/>
<path d="M3505 1670 c10 -11 20 -20 23 -20 3 0 -3 9 -13 20 -10 11 -20 20 -23
20 -3 0 3 -9 13 -20z"/>
<path d="M2725 1620 c21 -22 41 -40 44 -40 3 0 -13 18 -34 40 -21 22 -41 40
-44 40 -3 0 13 -18 34 -40z"/>
<path d="M3551 1633 c7 -12 15 -20 18 -17 3 2 -3 12 -13 22 -17 16 -18 16 -5
-5z"/>
<path d="M3584 1598 c-4 -7 -4 -10 1 -6 4 4 15 2 24 -5 14 -11 14 -10 2 6 -16
20 -18 21 -27 5z"/>
<path d="M3644 1568 c-4 -7 -4 -10 1 -6 4 4 14 0 21 -10 7 -9 14 -12 14 -6 0
6 -6 17 -14 23 -11 9 -16 9 -22 -1z"/>
<path d="M2782 1550 c7 -11 17 -20 22 -20 5 0 1 9 -9 20 -10 11 -20 20 -22 20
-2 0 2 -9 9 -20z"/>
<path d="M4260 1505 c13 -14 26 -25 28 -25 3 0 -5 11 -18 25 -13 14 -26 25
-28 25 -3 0 5 -11 18 -25z"/>
<path d="M2810 1516 c0 -2 8 -10 18 -17 15 -13 16 -12 3 4 -13 16 -21 21 -21
13z"/>
<path d="M2862 1450 c7 -11 17 -20 22 -20 5 0 1 9 -9 20 -10 11 -20 20 -22 20
-2 0 2 -9 9 -20z"/>
<path d="M2890 1416 c0 -2 8 -10 18 -17 15 -13 16 -12 3 4 -13 16 -21 21 -21
13z"/>
<path d="M4370 1407 c0 -2 15 -16 33 -33 l32 -29 -29 33 c-28 30 -36 37 -36
29z"/>
<path d="M4615 1369 c-4 -6 -5 -12 -2 -15 2 -3 7 2 10 11 7 17 1 20 -8 4z"/>
<path d="M2950 1345 c14 -16 26 -32 28 -34 1 -2 4 -2 7 1 3 2 -10 18 -28 34
l-32 29 25 -30z"/>
<path d="M4450 1336 c0 -2 8 -10 18 -17 15 -13 16 -12 3 4 -13 16 -21 21 -21
13z"/>
<path d="M4585 1299 c-4 -6 -4 -13 -1 -16 3 -4 6 -1 6 6 0 7 5 9 12 5 7 -4 8
-3 4 4 -9 15 -13 15 -21 1z"/>
<path d="M5126 1285 c-9 -26 -7 -32 5 -12 6 10 9 21 6 23 -2 3 -7 -2 -11 -11z"/>
<path d="M4532 1265 c15 -16 29 -27 31 -24 3 2 -10 15 -27 28 l-31 24 27 -28z"/>
<path d="M3050 1245 c13 -14 26 -25 28 -25 3 0 -5 11 -18 25 -13 14 -26 25
-28 25 -3 0 5 -11 18 -25z"/>
<path d="M3899 1233 c-12 -16 -12 -17 1 -7 8 6 22 14 30 17 13 5 12 6 -1 6 -9
1 -23 -7 -30 -16z"/>
<path d="M5096 1205 c-9 -26 -7 -32 5 -12 6 10 9 21 6 23 -2 3 -7 -2 -11 -11z"/>
<path d="M3800 1180 c-9 -6 -10 -10 -3 -10 6 0 15 5 18 10 8 12 4 12 -15 0z"/>
<path d="M3157 1169 c7 -7 15 -10 18 -7 3 3 -2 9 -12 12 -14 6 -15 5 -6 -5z"/>
<path d="M3990 1176 c0 -2 8 -10 18 -17 15 -13 16 -12 3 4 -13 16 -21 21 -21
13z"/>
<path d="M4030 1136 c0 -2 8 -10 18 -17 15 -13 16 -12 3 4 -13 16 -21 21 -21
13z"/>
<path d="M3458 1103 c18 -2 45 -2 60 0 15 2 0 4 -33 4 -33 0 -45 -2 -27 -4z"/>
<path d="M5026 1033 c-6 -14 -5 -15 5 -6 7 7 10 15 7 18 -3 3 -9 -2 -12 -12z"/>
<path d="M4170 1005 c19 -19 36 -35 39 -35 3 0 -10 16 -29 35 -19 19 -36 35
-39 35 -3 0 10 -16 29 -35z"/>
<path d="M4260 925 c13 -14 26 -25 28 -25 3 0 -5 11 -18 25 -13 14 -26 25 -28
25 -3 0 5 -11 18 -25z"/>
<path d="M4320 876 c0 -2 8 -10 18 -17 15 -13 16 -12 3 4 -13 16 -21 21 -21
13z"/>
<path d="M4926 823 c-6 -14 -5 -15 5 -6 7 7 10 15 7 18 -3 3 -9 -2 -12 -12z"/>
<path d="M4345 819 c-4 -6 -5 -12 -2 -15 2 -3 7 2 10 11 7 17 1 20 -8 4z"/>
<path d="M4846 673 c-6 -14 -5 -15 5 -6 7 7 10 15 7 18 -3 3 -9 -2 -12 -12z"/>
<path d="M4770 550 c-6 -11 -8 -20 -6 -20 3 0 10 9 16 20 6 11 8 20 6 20 -3 0
-10 -9 -16 -20z"/>
<path d="M4155 514 c-9 -15 -12 -23 -6 -20 11 7 35 46 28 46 -3 0 -12 -12 -22
-26z"/>
<path d="M4723 485 c0 -8 4 -12 9 -9 5 3 6 10 3 15 -9 13 -12 11 -12 -6z"/>
<path d="M4110 448 c-15 -21 -17 -28 -6 -19 16 13 41 51 33 51 -2 0 -14 -15
-27 -32z"/>
<path d="M4035 351 c-3 -5 -2 -12 3 -15 5 -3 9 1 9 9 0 17 -3 19 -12 6z"/>
<path d="M4009 313 c-13 -16 -12 -17 4 -4 16 13 21 21 13 21 -2 0 -10 -8 -17
-17z"/>
<path d="M4589 283 c-13 -16 -12 -17 4 -4 16 13 21 21 13 21 -2 0 -10 -8 -17
-17z"/>
<path d="M3969 263 c-29 -35 -41 -53 -36 -53 2 0 17 16 31 35 28 36 31 49 5
18z"/>
<path d="M4553 245 c0 -8 4 -12 9 -9 5 3 6 10 3 15 -9 13 -12 11 -12 -6z"/>
<path d="M4529 203 c-13 -16 -12 -17 4 -4 16 13 21 21 13 21 -2 0 -10 -8 -17
-17z"/>
<path d="M4494 158 l-19 -23 23 19 c12 11 22 21 22 23 0 8 -8 2 -26 -19z"/>
<path d="M3856 112 c-22 -27 -24 -32 -7 -17 20 17 47 55 39 55 -2 0 -16 -17
-32 -38z"/>
<path d="M4459 113 c-13 -16 -12 -17 4 -4 16 13 21 21 13 21 -2 0 -10 -8 -17
-17z"/>
<path d="M4429 73 c-13 -16 -12 -17 4 -4 16 13 21 21 13 21 -2 0 -10 -8 -17
-17z"/>
<path d="M3809 53 c-13 -16 -12 -17 4 -4 16 13 21 21 13 21 -2 0 -10 -8 -17
-17z"/>
<path d="M4389 23 c-13 -16 -12 -17 4 -4 16 13 21 21 13 21 -2 0 -10 -8 -17
-17z"/>
<path d="M3779 13 c-13 -16 -12 -17 4 -4 16 13 21 21 13 21 -2 0 -10 -8 -17
-17z"/>
</g>
</svg>
